<?xml version="1.0" encoding="UTF-8"?><svg id="Laag_1" xmlns="http://www.w3.org/2000/svg" viewBox="0 0 247.72 175.38"><defs><style>.cls-1{fill:#fff;}.cls-2{fill:none;stroke:#ccd500;stroke-miterlimit:10;}.cls-3{font-family:Gothicus, Gothicus;font-size:34.71px;}.cls-4{font-family:ImprintMT-Shadow, 'Imprint MT Shadow';font-size:29.47px;}</style></defs><path class="cls-2" d="m15.07,174.88v-12.77c-4.93,0-9.67,0-14.57,0,0-49.63,0-99.03,0-148.73,4.7,0,9.5,0,14.5,0V.5c72.58,0,144.95,0,217.61,0v12.73h14.62c0,49.7,0,99.15,0,148.76-4.77,0-9.45,0-14.39,0,0,4.35,0,8.55,0,12.89-72.65,0-145.02,0-217.77,0Zm.92-.75c72.09,0,143.94,0,216.08,0,0-4.39,0-8.58,0-13.02,5.01,0,9.74,0,14.48,0,0-49.07,0-97.9,0-146.96h-14.66c0-4.49,0-8.76,0-13.01-72.15,0-143.96,0-215.98,0v13.01c-4.94,0-9.68,0-14.5,0,0,49.11,0,97.99,0,147.09,4.89,0,9.62,0,14.58,0,0,4.43,0,8.64,0,12.88Z"/><path class="cls-2" d="m17.88,3.01c70.67,0,141.11,0,211.94,0,0,2.96,0,5.95,0,8.93,0,3.52.48,3.94,4.48,3.94,3.31,0,6.62,0,10.09,0,0,47.88,0,95.61,0,143.6-3.19,0-6.32,0-9.46,0-4.9,0-5.1.18-5.1,4.44,0,2.73,0,5.45,0,8.36-70.6,0-141.1,0-211.94,0,0-3.12.01-6.33,0-9.53-.01-2.83-.49-3.26-3.66-3.26-3.55,0-7.1,0-10.82,0,0-47.88,0-95.61,0-143.61,3.64,0,7.26,0,10.87,0,2.99,0,3.59-.52,3.6-3.11.02-3.21,0-6.43,0-9.75Zm211.24,168.66c0-3.18-.01-6.12,0-9.05.02-3.06,1-3.94,4.49-3.96,3.3-.02,6.6,0,9.99,0,0-47.44,0-94.65,0-142.02-3.67,0-7.14.04-10.62-.01-2.8-.05-3.79-.96-3.86-3.4-.03-1.08-.01-2.15-.01-3.23,0-2.12,0-4.23,0-6.33-70.32,0-140.19,0-210.31,0,0,2.98,0,5.84,0,8.69-.01,3.46-.94,4.28-4.9,4.29-3.21,0-6.42,0-9.69,0,0,47.47,0,94.62,0,142.01,3.37,0,6.58,0,9.8,0,3.77.01,4.77.9,4.78,4.2.01,2.91,0,5.82,0,8.82,70.21,0,140.07,0,210.31,0Z"/><path class="cls-2" d="m20.75,169.75c0-2.61,0-5.05,0-7.48-.02-3.63-1.98-5.35-6.15-5.36-2.73,0-5.47,0-8.34,0,0-46.21,0-92.22,0-138.46,2.91,0,5.72.02,8.53,0,3.96-.03,5.93-1.81,5.95-5.33.01-2.3.01-4.6.03-6.9,0-.14.07-.27.15-.59,68.51,0,137.06,0,206.03,0,0,2.18,0,4.45,0,6.71.02,4.41,1.93,6.1,6.9,6.1,2.5,0,5.01,0,7.69,0,0,46.14,0,92.15,0,138.46-2.81,0-5.61-.01-8.41,0-4.02.02-6.13,1.86-6.18,5.43-.03,2.43,0,4.86,0,7.41-68.77,0-137.33,0-206.2,0ZM7.04,19.13c0,45.79,0,91.29,0,136.99,2.58,0,5-.02,7.42,0,4.86.05,7.15,2.07,7.18,6.35.02,2.2,0,4.39,0,6.65,68.34,0,136.33,0,204.61,0,0-2.33,0-4.54,0-6.74.02-4.22,2.19-6.18,6.97-6.25,2.48-.03,4.97,0,7.54,0,0-45.78,0-91.28,0-137.01-2.56,0-4.97.01-7.38,0-4.97-.03-7.11-1.91-7.12-6.27,0-2.2,0-4.39,0-6.65-68.36,0-136.35,0-204.6,0,0,2.12,0,4.11,0,6.1-.01,5.04-2.04,6.82-7.79,6.83-2.18,0-4.36,0-6.81,0Z"/><path class="cls-2" d="m207.77,165.84c-.01.16-.02.32-.03.47,5.04,0,10.09,0,15.43,0v-12.92c5.03,0,9.77,0,14.41,0,0-4.69,0-9.16,0-13.64h-.58c0,4.26,0,8.52,0,13.04-5.01,0-9.73,0-14.72,0v13.04c-5.02,0-9.76,0-14.5,0Zm-197.14-13.09v-12.91c-.15,0-.31,0-.46.01,0,4.47,0,8.94,0,13.66,4.85,0,9.57,0,14.56,0,0,4.44,0,8.64,0,12.77,5.33,0,10.38,0,15.44,0v-.44h-14.62c0-4.48,0-8.67,0-13.1-5,0-9.74,0-14.92,0ZM231.96,27.02c-2.74,0-5.32,0-7.91,0-4.66-.02-6.61-1.76-6.64-5.92-.02-2.34,0-4.67,0-6.94-3.51,0-6.64,0-9.78,0,0,.16,0,.32,0,.48,2.91,0,5.83,0,8.97,0,0,2.47,0,4.68,0,6.89.02,4.03,2.31,6.08,6.86,6.11,2.55.02,5.1,0,7.97,0,0,2.92,0,5.48,0,8.03.18,0,.36-.01.53-.02,0-2.79,0-5.59,0-8.64Zm5.05,8.59c.22,0,.45-.02.67-.03v-13.77c-4.87,0-9.6,0-14.63,0,0-4.4,0-8.6,0-12.77-5.32,0-10.34,0-15.36,0,0,.17,0,.34,0,.52,4.87,0,9.73,0,14.82,0v13.1c4.91,0,9.59,0,14.51,0,0,4.42,0,8.69,0,12.95ZM39.91,9.5c-.01-.16-.02-.31-.03-.47-5.03,0-10.06,0-15.36,0,0,4.35,0,8.54,0,12.89-4.94,0-9.6,0-14.34,0v13.59h.51c0-4.22,0-8.46,0-13.01,5.12,0,9.91,0,14.97,0,0-4.51,0-8.69,0-13.01h7.3c2.32,0,4.64,0,6.96,0Zm167.72,151.28c0,.16.02.32.02.48,3.19,0,6.37,0,9.45,0,.17-.19.26-.24.26-.3.02-2.44,0-4.88.07-7.32.09-3.48,2.15-5.28,6.07-5.31,2.81-.03,5.62,0,8.37,0v-8.64h-.61c0,2.6,0,5.2,0,8.01-2.8,0-5.29-.02-7.78,0-4.59.04-6.85,2.05-6.87,6.09-.01,2.27,0,4.53,0,6.99-3.24,0-6.11,0-8.97,0Zm12.62-149.2c-4.46,0-8.53,0-12.59,0v.5c3.9,0,7.8,0,11.85,0,0,2.46,0,4.6,0,6.75q0,6.24,6.92,6.24c2.48,0,4.97,0,7.9,0,0,3.7,0,7.16,0,10.61.2-.01.39-.03.59-.04,0-3.68,0-7.35,0-11.21-3.67,0-7.21,0-10.76,0-3.12,0-3.88-.66-3.9-3.4-.02-3.14,0-6.29,0-9.45Zm14.69,128.12c-.24,0-.47-.01-.71-.02,0,3.43,0,6.86,0,10.55-3.56,0-6.78,0-10.01,0-3.98,0-4.72.66-4.72,4.12,0,2.92,0,5.83,0,8.99-4.19,0-8.01,0-11.83,0,0,.13.01.27.02.4,4.14,0,8.28,0,12.55,0,0-3.24-.01-6.32,0-9.4.02-2.8.74-3.45,3.83-3.46,3.61-.01,7.22,0,10.86,0,0-3.92,0-7.55,0-11.19ZM13.02,35.45c.19,0,.38,0,.57-.01,0-2.85.07-5.71-.03-8.55-.05-1.43.51-1.89,2.09-1.83,2.75.09,5.51.03,8.26.02,3.57-.01,4.39-.75,4.41-3.97.02-2.93,0-5.85,0-9.06,4.08,0,7.9,0,11.71,0,0-.15,0-.31,0-.46-4.11,0-8.22,0-12.52,0,0,2.43,0,4.78,0,7.14q0,5.73-6.34,5.73c-2.72,0-5.44,0-8.16,0v11Zm15.31,127.86c0-3.36.02-6.3,0-9.24-.03-3.05-.91-3.82-4.34-3.84-3.38-.02-6.75,0-10.47,0,0-3.64,0-7,0-10.35-.16,0-.32,0-.48.01v11c3.63,0,7.09,0,10.56,0,3.29,0,3.91.57,3.92,3.55,0,3.13,0,6.25,0,9.3,4.49,0,8.57,0,12.65,0v-.44c-3.83,0-7.66,0-11.84,0ZM30.42,14.1c0,2.36,0,4.58,0,6.8,0,4.36-1.96,6.1-6.89,6.12-2.55,0-5.09,0-7.5,0v8.39c.18,0,.37,0,.55,0v-7.76c2.4,0,4.49,0,6.58,0,6.15,0,7.97-1.6,7.98-6.99,0-1.97,0-3.95,0-6.15h8.87c0-.14-.01-.27-.02-.41h-9.58Zm-14.07,133.59v-7.68c-.14.01-.28.03-.42.04v8.03c.29.1.43.19.57.2,2.59.02,5.18.02,7.77.05,3.99.05,6.11,1.94,6.14,5.47.02,2.49,0,4.98,0,7.37,3.4,0,6.5,0,9.6,0,0-.15,0-.3,0-.45-2.86,0-5.72,0-8.43,0-.21-.35-.35-.48-.35-.6-.04-2.15-.06-4.3-.09-6.46-.05-3.98-2.23-5.94-6.7-5.96-2.56-.01-5.13,0-8.09,0Z"/><text class="cls-1" transform="translate(51.61 73.5) scale(1.13 1)"><tspan class="cls-3"><tspan x="0" y="0">Southside</tspan></tspan><tspan class="cls-4"><tspan x="-14.32" y="35.36">RECORDS</tspan></tspan></text></svg>