<?xml version="1.0" encoding="utf-8"?>
<!-- Generator: Adobe Illustrator 27.5.0, SVG Export Plug-In . SVG Version: 6.00 Build 0)  -->
<svg version="1.1" id="Laag_1" xmlns="http://www.w3.org/2000/svg" xmlns:xlink="http://www.w3.org/1999/xlink" x="0px" y="0px"
	 viewBox="0 0 174.5 72.2" style="enable-background:new 0 0 174.5 72.2;" xml:space="preserve">
<style type="text/css">
	.st0{enable-background:new    ;}
	.st1{fill:#FFFFFF;}
</style>
<g class="st0">
	<path class="st1" d="M42.8,8.5c-0.5,0.2-1.1,0.3-1.6,0.6c-0.7,0.6-2.3,0.8-2.4,1.7c-0.2,0.5,0.1,0.9,0.6,1.1
		c0.8,0.5,2.1,0.5,2.1,1.4c0.2,0.6-0.4,0.9-0.1,1.5c0,3.3,0.4,6.8,0.4,10.1c0,0.3-0.2,0.8-0.4,0.9c-3.1,2-6.2,3.4-9.5,5.3
		c-0.2,0-0.6-0.1-0.6-0.4c0-0.6-0.2-1-0.7-1.4c-0.6-0.3-1.2-0.5-1.8-0.9c-0.4,0-0.7-0.2-1-0.2c-0.4-0.1-1-0.5-1.5-0.9
		c-1.8-0.5-3.4-1.5-5.4-1.8c-1.3-0.2-2.6,0-3.9-0.3c-0.2,0-0.5,0.1-0.5-0.2c-0.2-0.5,0-1.1,0.6-1.4c0.4-0.1,0.7-0.2,1.1-0.4
		c0.4-0.2,0.7-0.8,1.3-1.1c2-0.9,3.9-2.2,5.2-3.6c0.4-0.6,0.1-1.2,0-1.9c-0.2-0.6-0.7-0.9-1.2-1.3c-0.4-0.9-0.6-1.7-1.3-2.4
		c-0.1-0.2-0.3-0.9-0.3-1.1c0.3-0.9,1.3-1.4,1.9-1.9c3.3-2.3,5.9-4.7,9.5-6.3c0.5-0.1,1.2,0.1,1.5,0.5c2.3,1.4,4.5,2.9,7.3,2.7
		c0.5,0,1.3,0.2,1.6-0.4c0.3-0.6,0-1-0.5-1.4c-0.2-0.1-0.6-0.1-0.8-0.1c-1.6-1.7-4-0.4-6.2-1c0.2-1.1,1.8-0.7,2.9-1
		c1.4-0.4,3-0.2,4.3,0.6c0.9,0.3,1.3,1.1,1.6,1.8C45.6,6.7,44.1,7.8,42.8,8.5z M31.9,16.5c-0.2-0.1-0.4-0.6-0.6-0.4
		c-2.9,1.2-4.8,2.8-7.2,4.6c-0.6,0.3-0.5,1.1,0.3,1.2c2.4,0.3,4.3,1.5,6.5,1.9c0.1,0,0.5-0.3,0.5-0.4c0-1.2,0-2,0.3-3.2
		c0.2-0.5-0.2-1,0-1.4C31.7,18.1,32,17.4,31.9,16.5z M30,8.1c-0.7,0-1.6,0.1-1.9,0.6c-0.6,1.9,1.2,3.3,1.9,5.1
		c0.2,0.3,0.9,0.6,1.4,0.3c0.3-0.1,0.3-0.3,0.5-0.6c0.4-1.1,0-2.3,0.4-3.4C32.6,8.7,31.4,7.8,30,8.1z M36.1,20.1
		c-0.2-1.4,0.1-2.8-0.5-4.3c-0.3-0.7-1.3-0.6-2.1-0.7c-0.7,2.7-0.7,5.7-0.5,8.4c0,0.4,0,1,0.2,1.4c0.4,0.6,1.4,1.1,2.2,1
		c0.5-0.1,0.7-0.8,0.7-1.1C35.8,23.2,36.3,21.7,36.1,20.1z M36.5,10.4c-0.7-0.8-1.6-1.1-2.5-0.8c-1,0.3-0.5,1.4-0.5,2.3
		c0,0.2,0.4,0.6,0.6,0.5c0.8-0.6,1.4-0.9,2.1-1.6C36.5,10.7,36.5,10.5,36.5,10.4z"/>
	<path class="st1" d="M52.3,30.6c-2.1-1-4.4-1.3-6.2-2.7c-0.5-0.2,0.1-0.8,0.3-1.3c0.4-1.5,0.3-2.8,0.3-4.2c-0.2-2.1,0-4.3,0-6.4
		c0-0.2,0.3-0.6,0.4-0.9c1.6-1.2,3.4-2,5.2-2.8c0.6-0.2,1.3,0.4,2,0.7c1.8,0.6,4,0.6,5.6,1.8c0,0.1,0.3,0.3,0.1,0.5
		c-1.2,1.7-0.9,3.5-0.7,5.2c0,0.9-0.2,1.8,0,2.9c0.1,1,0.7,2.1,0.6,3.2c-2.2,1.3-4.1,2.6-6.4,4.1C53.2,30.9,52.7,30.8,52.3,30.6z
		 M51.6,25.7c1.2,0.5,2.1,1,3.3,1.5c0.2,0,0.6-0.2,0.6-0.4c0.5-2.9,0-5.7-0.3-8.6c-0.1-1.3-2.4-1.1-3.6-1.4c-0.3,0-0.5,0.2-0.6,0.5
		c-0.3,1.7,0,3.2,0.1,4.8C51.1,23.3,50.3,25.1,51.6,25.7z"/>
	<path class="st1" d="M61,15.4c-0.2-1.2,1.9-1.5,2.6-2.5c0.2-0.2,0.3-0.5,0.5-0.7c0.3-0.2,0.5-0.3,0.7-0.2c0.7,0.7,1.7,1,2,1.7
		c0.5,0.7,0.2,1.6,0.2,2.3c0,1.9-0.4,3.9-0.5,5.7c-0.2,1,0,2.1,0.1,3.1c0.4,1.4,2.5,1.2,3.8,1.1c0.3-0.1,0.5-0.2,0.7-0.5
		c0.9-2.6,0.4-5.1,0.3-7.7c0-0.4,0-0.8-0.2-1.1c-0.3-0.5-0.8-0.8-1.2-1.2c0-0.1,0-0.4,0-0.5c1.1-1.1,2.7-1.6,3.9-2.7
		c1.1,0.3,2.5,1.3,2,2.3c-0.3,0.9-0.3,1.8-0.4,2.7c-0.3,2.5-0.3,4.8,0.3,7.3c0.1,0.7,0.7,1,1.2,1.4c0.3,0.2,0.3,0.6,0.2,0.8
		c-0.5,1.1-1.5,2-2.5,2.9c-0.2,0.1-0.4,0.2-0.7,0.1c-1.1-0.9-2-2.5-3.6-2c-1.2,0.2-1.8,1.5-3.1,2c-0.7,0.1-1.5-0.2-2.2-0.3
		c-0.8-0.2-1.6-0.5-2.5-0.7c-0.5-0.3-1.5-0.4-1.5-0.9s0.7-1,0.9-1.5c0.8-3.2,0.9-6.3,0.4-9.5C62.3,16,61,16,61,15.4z"/>
	<path class="st1" d="M80.1,13.3c0-0.8-0.2-1.5,0-2.2c0-0.1,0.1-0.4,0.3-0.5c1.3-0.9,2.7-1.6,3.8-2.5c0.3-0.1,0.7-0.2,0.9,0
		c0.6,0.9-0.3,1.7-0.2,2.6c0.1,0.6,0,1.4,0.3,2.1c0.2,0.8,1.2,0.4,2.1,0.5c0.3,0,0.5,0.4,0.5,0.5c-0.3,0.9,0.4,2.4-0.6,2.7
		c-0.8,0.4-2.1-0.1-2.2,0.7c-0.4,1.9-0.3,3.7-0.4,5.7c0,0.9,0,1.9,0.4,2.8c0.3,0.8,1.2,1,1.9,1.6c0.1,0.3,0.3,0.5,0.1,0.8
		c-0.7,1-1.6,1.8-2.7,2.6c-0.5,0.3-1.2,0.1-1.8-0.2c-1.4-0.9-2.9-1-4.3-1.8c0.2-0.9,1.5-1.3,1.6-2.4c0.1-1.4,0.3-3,0.3-4.4
		c0-1.6,0.3-3.1,0-4.7c0-0.6-0.8-0.8-1.5-0.8c-0.2,0-0.5-0.2-0.5-0.3C78.3,15,79.9,14.5,80.1,13.3z"/>
	<path class="st1" d="M88.9,27.8c-0.3-0.1-0.4-0.5-0.3-0.9c0.3-0.5,1.2-0.9,1.4-1.6c0.4-2.7,0.4-5.5,0.4-8.2c0.2-1-0.1-2.1-0.1-3.1
		c0-1.7,0.1-3.4,0.1-5c0-0.2,0.2-0.4,0.3-0.5c1.3-1,2.8-1.7,4.1-2.8c1.2-0.8,2.5-1,3.7-1.7c0.3-0.1,0.4,0.1,0.4,0.3
		c0.3,3.1-1,5.8-1.9,8.9c0,0,0.3,0.3,0.4,0.2c0.8-0.7,1.8-1.5,2.9-1c1.6,0.5,3.1,1.6,4.7,2.5c0.1,0.1,0.3,0.4,0.1,0.7
		c-0.3,0.4-0.7,0.8-1,1.1c-0.3,0.5-0.5,1-0.3,1.7c0.1,1,0,2.2,0.1,3.2c0,0.2-0.3,0.7-0.3,0.9c0.3,1.1,0.2,2.3,0,3.5
		c-0.1,1.6,0,3.3-0.6,4.9c-0.3,0.5-0.3,1.1-0.7,1.7c-1.3,1.6-2.5,2.7-4.1,3.9c-0.2,0.3-0.2,0.7-0.5,0.8c-0.4,0.1-0.7-0.3-0.6-0.5
		c0.6-0.9,1.4-1.7,1.8-2.6c0.3-0.6,0.3-1.1,0.6-1.8c0.5-0.9,0.2-2.1,0.3-3c0-2.5-0.1-5-0.1-7.5c-0.2-1.4,0.1-2.8,0.1-4.3
		c-1.2-0.9-3.8-2-4.9-0.5c-0.5,0.6-0.7,1.4-0.6,2.2c0.3,2.1-0.2,4.1,0.3,6.1c0.1,1,1.6,0.8,2,1.6c0.9,1.6-2,2.4-3.1,3.2
		C91.9,29.9,90.4,28.8,88.9,27.8z M95,10.7c0,0.8,0,1.6,0.1,2.4c0.2,0.5,0.8,0.1,0.9-0.2c0.6-1.3,2.2-5.1,0.7-7.3
		c-0.7,0.3-1.5,1.1-1.6,1.9C94.8,8.5,94.8,9.7,95,10.7z"/>
	<path class="st1" d="M106.1,27.2c-0.1-0.1-0.1-0.5,0-0.8c0.9-1.1,2.5-1.9,2.6-3.2c0.2-1.3-1.2-2.2-1.8-3.3
		c-0.3-0.6-0.6-1.3-0.1-1.9c1.9-2.6,5-3.9,7.5-6c1.1,0.3,1.5,1.1,2.6,1.4c0.6,0.2,1.4,0.4,2,0.3c0.6-0.3,1.2-0.8,1-1.4
		c-0.4-1.3-2.2-1-2.9-1.8c-0.4-0.4,0.2-0.9,0.8-1c0.2-0.1,0.7-0.2,1,0c1.5,0.8,2.4,2.3,2,3.7c-0.5,1.7-1.6,2.8-3.1,4.1
		c-0.1,0.1-0.1,0.5,0,0.6c1.6,2.1,2.7,4.2,3.1,6.7c0,0.5-0.2,1-0.5,1.4c-1.6,1.8-3.3,3.5-5.3,5c-0.3,0.1-0.6,0.2-0.9,0.1
		c-0.7-0.4-1-1-1.6-1.5C110.4,28.5,108.2,28.4,106.1,27.2z M111.3,24.5c1.6,1,3.5,0.9,5,1.9c0.1,0.2,0.4-0.1,0.6-0.1
		c0.6-1.5-0.6-2.7-1.6-3.6c-0.6-0.5-1.3-1.3-2.2-1C112,22.2,109.9,23.6,111.3,24.5z M112.7,19.2c0.3,0.2,0.6,0.2,0.9,0
		c0.7-0.3,1.5-1,1.5-1.8c0.1-0.4-0.5-0.7-1.1-0.6c-1,0.1-2.5-0.9-2.9,0.1C110.7,17.8,111.9,18.6,112.7,19.2z"/>
	<path class="st1" d="M122.8,25.6c0.3-2,0.3-3.8,0.4-5.6c0-1.3,0-2.6-0.6-3.7c-0.3-0.4-1-0.5-1-0.9c0.1-1.6,2.1-2.2,3.4-2.7
		c1.1-0.3,2,0.6,2.5,1.4c0.4,0.5-0.3,1-0.3,1.7c0,0.6-0.2,1.3-0.3,1.9c-0.3,1.3,0,2.6,0,4.1c-0.2,1.1,0,2.5,0.3,3.6
		c0.3,0.6,1,0.9,1.5,1.4c0,0.1,0,0.4,0,0.5c-0.9,1-1.6,2.1-2.8,2.8c-1.5-0.6-2.6-1.6-3.9-2.6c0-0.1,0-0.3,0-0.5
		C122.3,26.4,122.6,26.1,122.8,25.6z M122,10.6c1.5-1.3,2.5-3,4.4-3.7c0.7-0.3,1.8-0.9,2.2-0.2c-1.2,1.3-2.8,2.1-4.4,2.9
		c-0.8,0.4-1.4,0.7-2,1.2C122.2,10.8,122,10.6,122,10.6z"/>
	<path class="st1" d="M143.9,22c0.3,1.4,0.6,2.7,0.7,4c0,0.2-0.3,0.4-0.6,0.5c-0.6,0.1-1.2,0.4-1.6,0.8c-1.6,1.5-3.8,2.3-6,2.9
		c-2.2-1-4.7-1.7-6.8-3.2c-0.1-0.1-0.1-0.5,0-0.6c0.6-0.5,0.9-1,0.9-1.6c0.2-2,0.2-4.1,0-6c0-1-0.6-2.6,0.6-3.1
		c1.2-0.5,2.2-1.3,2.9-2.2c0.6-0.6-0.6-1.4-0.7-2.2c-0.6-3.8,3.9-5.7,7.2-7.2c1.8,0.7,2.7,2.3,3.1,3.6c0.7,2,0.4,4.3-0.2,5.7
		c0.2,0.2,0.5,0.7,0.6,1c0.6,2.1,0.2,4.1,0,6.1C144,21.1,143.9,21.5,143.9,22z M139.2,17.2c-0.6-1.1-2.1-2.5-3.7-2.5
		c-0.3,0-0.3,0.5-0.4,0.6c0,3.1-0.6,6.2,0.4,9.4c0.3,0.9,1.8,0.9,2.8,1.6c0.4,0.2,1,0.3,1-0.1c0.2-1,0-2.1,0-3.1
		C139.2,21.1,140,19,139.2,17.2z M139.2,5.7c-2,0.5-2.1,2.7-1.4,4.1c1.1,1.5,3.6,2.3,5.2,3.4C144.3,10.6,141.6,5.1,139.2,5.7z"/>
	<path class="st1" d="M157.6,26.3c0.2,0.2,0.5,0.4,0.3,0.5c-1.5,1.2-2.6,2.5-4.2,3.4c-2-0.5-3.7-1.5-5.8-2c-0.7-0.1-1.5,0-2.2-0.3
		c-0.2-0.2-0.3-0.4-0.3-0.6c1.2-1.9,0.6-4.3,0.7-6.4c0.2-1.8-0.3-3.5,0-5.3c0.2-0.4,0.3-0.8,0.8-0.9c2-0.7,3.3-2.1,5.3-3
		c1.8,1.5,3.3,3,5,4.7c0.2,0.3,0.7,0.7,0.6,1c-1.6,2.3-3.8,3.5-5.9,5.4c-0.5,0.2-1.1,0.2-1.3,0.6c-0.3,0.8,0.2,1.7,1.1,2
		c1.3,0.3,2.6,0.8,4.1,1.1C156.3,26.7,157,26.2,157.6,26.3z M150.7,21.9c0,0.1,0.3,0.1,0.4,0.1c0.9-0.9,2.2-1.6,2-2.8
		c-0.1-1-1.3-1.6-2-2.4c-0.1-0.1-0.4,0.1-0.6,0.1C150.1,18.6,150.7,20.2,150.7,21.9z"/>
</g>
<g class="st0">
	<path class="st1" d="M12.2,64.9H0.9v-0.8c1.1,0,1.8-0.1,2.3-0.2c0.5-0.1,0.9-0.4,1-0.7c0.2-0.3,0.3-0.9,0.3-1.6V48.1
		c0-0.8-0.1-1.3-0.2-1.7c-0.2-0.4-0.5-0.6-1-0.8c-0.5-0.2-1.3-0.2-2.4-0.3v-0.8h12.8c1.6,0,3,0.2,4.2,0.7c1.2,0.5,2.1,1.2,2.7,2
		s0.9,1.7,0.9,2.7c0,0.6-0.1,1.2-0.4,1.8c-0.3,0.6-0.7,1.1-1.2,1.6c-0.5,0.5-1.2,0.9-1.9,1.2s-1.6,0.6-2.6,0.7
		c0.7,0.7,1.7,1.6,2.8,2.8l1.6,1.7c0.1,0.1,0.2,0.2,0.3,0.3s0.3,0.3,0.5,0.5c0.5,0.6,1,1,1.3,1.4c0.4,0.4,0.7,0.7,1.1,1
		c0.4,0.3,0.7,0.5,1,0.7c0.3,0.2,0.7,0.3,1.1,0.4v0.8h-3.1c-0.7,0-1.3-0.1-2-0.4c-0.6-0.3-1.2-0.7-1.8-1.2s-1.2-1.2-1.9-2l-2.3-2.6
		c-1.1-1.2-1.8-2-2.3-2.5c-0.5-0.5-1-0.7-1.3-0.7H8.6v6.1c0,0.6,0.1,1.1,0.3,1.4c0.2,0.3,0.6,0.6,1.1,0.7c0.3,0.1,0.7,0.1,1.2,0.2
		c0.5,0,0.8,0.1,1,0.1V64.9z M5.1,48v14.2c0,0.9-0.4,1.5-1.1,1.9c1.4,0,2.1-0.5,2.1-1.5V48.1c0-0.7,0-1.3-0.1-1.7
		c-0.1-0.4-0.3-0.7-0.6-0.8c-0.3-0.2-0.8-0.3-1.5-0.2c0.6,0.2,0.9,0.5,1.1,0.9C5,46.6,5.1,47.2,5.1,48z M8.6,48.3v6.5h2.6
		c0.9,0,1.8-0.1,2.6-0.4s1.5-0.6,2-1c0.9-0.7,1.3-1.9,1.3-3.4c0-1.8-0.7-3.1-2.1-4c-0.5-0.3-1-0.5-1.5-0.6c-0.5-0.1-1.2-0.1-2-0.1
		c-0.8,0-1.5,0.1-1.9,0.3c-0.4,0.2-0.7,0.5-0.8,0.9C8.7,46.9,8.6,47.5,8.6,48.3z M12.9,55.6h-1.3c0.4,0.3,0.8,0.6,1.4,1.2
		c0.5,0.5,1.2,1.2,1.9,2.1c0.8,0.9,1.6,1.8,2.4,2.7c0.7,0.8,1.4,1.4,2,1.9c0.6,0.4,1.2,0.7,1.6,0.8s1,0.2,1.5,0.2
		c-0.7-0.3-1.3-0.7-1.9-1.2c-0.6-0.5-1.3-1.1-2-1.9c-0.7-0.8-1.4-1.6-2.2-2.4s-1.5-1.7-2.3-2.4c-0.1-0.1-0.2-0.3-0.4-0.5
		C13.4,55.9,13.1,55.7,12.9,55.6z M14.3,54.7c1.5-0.2,2.6-0.6,3.3-1.4c0.8-0.8,1.2-1.9,1.2-3.2c0-1.3-0.3-2.4-1-3.2s-1.7-1.3-3-1.4
		c1,0.4,1.7,1,2.2,1.8c0.5,0.7,0.7,1.7,0.7,3c0,1.3-0.3,2.3-0.9,2.9C16.3,53.8,15.4,54.3,14.3,54.7z"/>
	<path class="st1" d="M34.1,54.8v6.3c0,0.7,0.1,1.2,0.2,1.6c0.1,0.4,0.3,0.7,0.6,0.9c0.3,0.2,0.7,0.3,1.3,0.4c0.6,0,1.3,0.1,2.3,0.1
		c1.2,0,2.3-0.2,3.2-0.5s1.8-0.8,2.7-1.4c0.8-0.6,1.8-1.5,2.8-2.5h1.3l-2,5.2h-20v-0.8c1,0,1.7-0.1,2.2-0.2c0.5-0.1,0.9-0.3,1.1-0.6
		s0.3-0.7,0.3-1.3V47.7c0-0.7-0.1-1.2-0.3-1.5c-0.2-0.3-0.5-0.5-1-0.6c-0.5-0.1-1.2-0.2-2.3-0.2v-0.8h19.2l2,4.6h-1.2
		c-0.6-0.7-1.4-1.3-2.3-1.9c-0.9-0.6-1.9-1-3-1.4c-1.1-0.3-2.3-0.5-3.6-0.5c-1,0-1.7,0.1-2.2,0.3c-0.5,0.2-0.8,0.4-1,0.8
		s-0.2,0.8-0.2,1.3V54h3.3c2.9,0,4.3-1.2,4.3-3.5h1.1v7.6h-1c-0.1-1.2-0.5-2-1.1-2.6c-0.6-0.5-1.5-0.8-2.8-0.8H34.1z M30.6,47.8
		v13.9c0,0.7-0.1,1.2-0.3,1.5c-0.2,0.3-0.5,0.6-0.8,0.8c0.9,0,1.5-0.2,1.7-0.6c0.3-0.4,0.4-1.1,0.4-2V47.5c0-0.8-0.2-1.4-0.5-1.6
		s-0.9-0.4-1.7-0.4c0.4,0.2,0.7,0.4,0.9,0.8S30.6,47.1,30.6,47.8z M41.5,55.8v-2.8c-0.4,0.6-1.2,1.1-2.3,1.4
		c0.6,0.1,1.1,0.3,1.4,0.5C40.9,55.1,41.2,55.4,41.5,55.8z M44.1,45.4h-2.9c0.8,0.2,1.5,0.5,2.2,0.9s1.3,0.7,2,1.2L44.1,45.4z
		 M44.8,64.1l1.1-2.5c-0.6,0.6-1.2,1.1-1.7,1.4c-0.5,0.3-1.3,0.7-2.2,1.1H44.8z"/>
	<path class="st1" d="M70.3,44.3h1.3v6.4h-1c-0.5-0.9-1.1-1.8-1.7-2.5c-0.6-0.7-1.2-1.3-1.9-1.8c-0.7-0.5-1.4-0.8-2.1-1.1
		c-0.7-0.2-1.5-0.4-2.3-0.4c-1.1,0-2.2,0.2-3.1,0.7c-0.9,0.4-1.7,1.1-2.4,1.9c-0.7,0.8-1.2,1.8-1.5,3c-0.4,1.2-0.5,2.5-0.5,3.8
		c0,1.9,0.4,3.6,1.1,5s1.7,2.6,3,3.4c1.3,0.8,2.7,1.2,4.4,1.2c1,0,2-0.1,2.9-0.4s1.8-0.7,2.7-1.3s1.7-1.3,2.4-2.2l1,0.5
		c-1.2,1.6-2.7,2.7-4.4,3.5c-1.7,0.8-3.7,1.2-5.9,1.2c-1.7,0-3.3-0.3-4.8-0.8s-2.7-1.3-3.8-2.3c-1.1-1-1.9-2.1-2.4-3.4
		c-0.6-1.3-0.9-2.6-0.9-4c0-1.5,0.3-3,0.9-4.3c0.6-1.3,1.5-2.5,2.6-3.4c1.1-0.9,2.4-1.7,3.8-2.2c1.4-0.5,3-0.8,4.6-0.8
		c0.6,0,1.2,0,1.7,0.1c0.5,0.1,1.2,0.2,1.9,0.4c0.7,0.2,1.2,0.3,1.5,0.3c0.3,0.1,0.5,0.1,0.9,0.1C69,45.1,69.7,44.8,70.3,44.3z
		 M58.9,44.9c-1.7,0.6-3.1,1.2-4.1,2c-0.6,0.5-1.2,1-1.6,1.6c-0.5,0.6-0.9,1.2-1.2,1.8c-0.3,0.7-0.6,1.4-0.8,2.1
		c-0.2,0.8-0.3,1.5-0.3,2.2c0,1.7,0.4,3.3,1.2,4.8s2,2.7,3.6,3.6c1.6,1,3.5,1.6,5.7,1.8c-1.4-0.3-2.8-0.8-3.9-1.5s-2.2-1.4-3-2.3
		c-0.8-0.9-1.5-1.9-1.9-3C52.2,57,52,55.9,52,54.7c0-1,0.2-2,0.5-3c0.4-1.1,0.9-2,1.5-2.8c0.7-0.9,1.5-1.7,2.3-2.2
		C57,46.1,57.9,45.5,58.9,44.9z M69.7,47.9l-0.1-2.4c-0.5,0.2-1,0.3-1.6,0.3c-0.3,0-0.5,0-0.8-0.1c0.6,0.4,1,0.7,1.4,1.1
		C69,47.1,69.3,47.5,69.7,47.9z"/>
	<path class="st1" d="M74.6,54.6c0-0.9,0.1-1.7,0.3-2.5c0.2-0.8,0.5-1.5,0.8-2.2c0.4-0.7,0.8-1.4,1.3-2c0.5-0.6,1.1-1.2,1.8-1.6
		c0.7-0.5,1.5-0.9,2.3-1.3s1.7-0.6,2.6-0.7s2-0.2,3-0.2c1.8,0,3.5,0.3,5,0.8c1.5,0.5,2.8,1.3,3.8,2.3c1.1,1,1.9,2.1,2.4,3.3
		c0.6,1.3,0.8,2.6,0.8,4c0,1.5-0.3,2.9-0.9,4.2c-0.6,1.3-1.5,2.4-2.7,3.4c-1.1,1-2.5,1.7-4,2.2s-3.2,0.8-5,0.8
		c-1.7,0-3.2-0.3-4.7-0.8s-2.7-1.3-3.7-2.2c-1-0.9-1.9-2.1-2.4-3.4C74.9,57.6,74.6,56.2,74.6,54.6z M80.7,45.8
		c-1.8,1-3.2,2.2-4.1,3.7s-1.4,3.2-1.4,5.1c0,1.6,0.3,3,0.9,4.3c0.6,1.3,1.5,2.4,2.7,3.4s2.6,1.7,4.4,2.2c-2.1-1-3.8-2.3-5.1-4
		s-1.9-3.7-1.9-6.2c0-1.2,0.2-2.3,0.5-3.3s0.8-1.9,1.5-2.8C78.9,47.5,79.7,46.6,80.7,45.8z M79.1,53.1c0,1.7,0.2,3.2,0.6,4.6
		c0.4,1.4,0.9,2.6,1.7,3.6c0.7,1,1.6,1.8,2.6,2.3s2.1,0.8,3.2,0.8c1,0,1.9-0.2,2.8-0.6c0.9-0.4,1.6-0.9,2.3-1.7
		c0.7-0.7,1.2-1.7,1.5-2.7c0.4-1.1,0.5-2.4,0.5-3.8c0-1.6-0.2-3-0.6-4.4s-1-2.5-1.7-3.4c-0.7-0.9-1.6-1.7-2.6-2.2
		c-1-0.5-2.1-0.8-3.3-0.8c-1,0-1.9,0.2-2.8,0.6c-0.9,0.4-1.6,0.9-2.2,1.6c-0.6,0.7-1.1,1.6-1.4,2.6C79.3,50.8,79.1,51.9,79.1,53.1z
		 M89.2,45.2c1.2,0.6,2.3,1.4,3.1,2.4c0.9,1,1.5,2.2,1.9,3.6s0.7,3,0.7,4.6c0,1.6-0.2,3-0.7,4.2s-1.2,2.2-2.1,3.1
		c0.9-0.6,1.6-1.3,2.2-2c0.6-0.8,1-1.6,1.3-2.6s0.4-2,0.4-3.2c0-1.7-0.3-3.3-0.8-4.7s-1.3-2.6-2.3-3.6
		C91.7,46.1,90.5,45.4,89.2,45.2z"/>
	<path class="st1" d="M112.5,64.9h-11.3v-0.8c1.1,0,1.8-0.1,2.3-0.2s0.9-0.4,1-0.7c0.2-0.3,0.3-0.9,0.3-1.6V48.1
		c0-0.8-0.1-1.3-0.2-1.7c-0.2-0.4-0.5-0.6-1-0.8c-0.5-0.2-1.3-0.2-2.4-0.3v-0.8H114c1.6,0,3,0.2,4.2,0.7c1.2,0.5,2.1,1.2,2.7,2
		c0.6,0.8,0.9,1.7,0.9,2.7c0,0.6-0.1,1.2-0.4,1.8c-0.3,0.6-0.7,1.1-1.2,1.6c-0.5,0.5-1.2,0.9-1.9,1.2c-0.8,0.3-1.6,0.6-2.6,0.7
		c0.7,0.7,1.7,1.6,2.8,2.8l1.6,1.7c0.1,0.1,0.2,0.2,0.3,0.3c0.1,0.1,0.3,0.3,0.5,0.5c0.5,0.6,1,1,1.3,1.4s0.7,0.7,1.1,1
		s0.7,0.5,1,0.7s0.7,0.3,1.1,0.4v0.8h-3.1c-0.7,0-1.3-0.1-2-0.4c-0.6-0.3-1.2-0.7-1.8-1.2s-1.2-1.2-1.9-2l-2.3-2.6
		c-1.1-1.2-1.8-2-2.3-2.5c-0.5-0.5-1-0.7-1.3-0.7h-1.8v6.1c0,0.6,0.1,1.1,0.3,1.4c0.2,0.3,0.6,0.6,1.1,0.7c0.3,0.1,0.7,0.1,1.2,0.2
		c0.5,0,0.8,0.1,1,0.1V64.9z M105.4,48v14.2c0,0.9-0.4,1.5-1.1,1.9c1.4,0,2.1-0.5,2.1-1.5V48.1c0-0.7,0-1.3-0.1-1.7
		c-0.1-0.4-0.3-0.7-0.6-0.8c-0.3-0.2-0.8-0.3-1.5-0.2c0.6,0.2,0.9,0.5,1.1,0.9C105.3,46.6,105.4,47.2,105.4,48z M108.9,48.3v6.5h2.6
		c0.9,0,1.8-0.1,2.6-0.4s1.5-0.6,2-1c0.9-0.7,1.3-1.9,1.3-3.4c0-1.8-0.7-3.1-2.1-4c-0.5-0.3-1-0.5-1.5-0.6c-0.5-0.1-1.2-0.1-2-0.1
		c-0.8,0-1.5,0.1-1.9,0.3c-0.4,0.2-0.7,0.5-0.8,0.9C109,46.9,108.9,47.5,108.9,48.3z M113.1,55.6h-1.3c0.4,0.3,0.8,0.6,1.4,1.2
		s1.2,1.2,1.9,2.1c0.8,0.9,1.6,1.8,2.4,2.7c0.7,0.8,1.4,1.4,2,1.9c0.6,0.4,1.2,0.7,1.6,0.8c0.5,0.1,1,0.2,1.5,0.2
		c-0.7-0.3-1.3-0.7-1.9-1.2c-0.6-0.5-1.3-1.1-2-1.9c-0.7-0.8-1.4-1.6-2.2-2.4c-0.8-0.9-1.5-1.7-2.3-2.4c-0.1-0.1-0.2-0.3-0.4-0.5
		C113.6,55.9,113.4,55.7,113.1,55.6z M114.6,54.7c1.5-0.2,2.6-0.6,3.3-1.4c0.8-0.8,1.2-1.9,1.2-3.2c0-1.3-0.3-2.4-1-3.2
		c-0.7-0.8-1.7-1.3-3-1.4c1,0.4,1.7,1,2.2,1.8c0.5,0.7,0.7,1.7,0.7,3c0,1.3-0.3,2.3-0.9,2.9C116.6,53.8,115.7,54.3,114.6,54.7z"/>
	<path class="st1" d="M140.5,64.9h-12.9v-0.8c0.9,0,1.6-0.1,2-0.2s0.8-0.3,1-0.7c0.2-0.3,0.3-0.8,0.3-1.4V47.3
		c0-0.7-0.3-1.2-0.8-1.4c-0.5-0.2-1.4-0.4-2.5-0.5v-0.8h13.4c1.7,0,3.4,0.3,4.8,0.8s2.7,1.2,3.8,2.2s1.9,2,2.4,3.3
		c0.6,1.3,0.9,2.6,0.9,4.1c0,1.4-0.3,2.8-0.9,4c-0.6,1.2-1.4,2.3-2.5,3.2c-1.1,0.9-2.4,1.6-4,2.1C144,64.6,142.4,64.9,140.5,64.9z
		 M132.6,61.8V48.5c0-1.1-0.1-1.9-0.4-2.4s-0.9-0.7-1.9-0.7c0.5,0.2,0.8,0.5,0.9,0.8c0.1,0.3,0.2,0.8,0.2,1.4v13.8
		c0,0.6,0,1.1-0.1,1.4s-0.2,0.6-0.3,0.8c-0.2,0.2-0.4,0.3-0.7,0.4c0.8,0,1.4-0.2,1.7-0.5S132.6,62.6,132.6,61.8z M135,49.5v11.6
		c0,0.8,0.1,1.4,0.2,1.8s0.4,0.7,0.9,0.8s1.3,0.3,2.4,0.3c1.2,0,2.2-0.1,3.2-0.3s1.8-0.6,2.7-1.1c1-0.6,1.8-1.3,2.3-2.1
		c0.6-0.7,1-1.6,1.2-2.5c0.3-0.9,0.4-2,0.4-3.1c0-3.4-1.1-6-3.4-7.7c-0.9-0.7-1.9-1.2-3-1.5c-1.1-0.3-2.4-0.4-3.9-0.4
		c-1,0-1.7,0.1-2.2,0.4c-0.4,0.3-0.7,0.6-0.7,1.1C135.1,47.4,135,48.3,135,49.5z M142.6,64.1c1.4-0.1,2.6-0.5,3.7-1.3s2-1.7,2.6-3.1
		c0.6-1.3,1-2.9,1-4.7c0-1.3-0.2-2.5-0.5-3.6c-0.3-1.1-0.8-2-1.4-2.9c-0.6-0.8-1.3-1.5-2.2-2c-0.5-0.3-1-0.5-1.6-0.7
		s-1.1-0.3-1.8-0.4c4.2,1.4,6.2,4.7,6.2,9.6c0,1.5-0.2,2.8-0.7,4c-0.4,1.2-1.1,2.1-2.1,3C145.2,62.9,144,63.5,142.6,64.1z"/>
	<path class="st1" d="M156.5,57.6h1.1c0.6,1.5,1.3,2.8,2.2,3.8c0.8,1,1.8,1.8,2.7,2.3c1,0.5,2,0.7,3.1,0.7c1.4,0,2.5-0.4,3.5-1.1
		s1.4-1.7,1.4-2.9c0-1.1-0.3-1.9-1-2.6s-1.4-1-2.3-1.3s-2.1-0.5-3.5-0.7c-1.5-0.2-2.5-0.4-3.1-0.6c-0.9-0.3-1.7-0.7-2.4-1.2
		s-1.2-1.1-1.5-1.8s-0.5-1.5-0.5-2.3c0-0.8,0.2-1.5,0.5-2.2c0.3-0.7,0.7-1.3,1.3-1.9s1.2-1,2-1.3c0.8-0.3,1.7-0.5,2.7-0.5
		c0.7,0,1.6,0.1,2.6,0.3s1.8,0.3,2.2,0.3c0.6,0,1.1-0.1,1.7-0.3h1.2l0.7,5.9H170c-1.1-1.8-2.2-3.1-3.3-4c-1.2-0.9-2.5-1.4-4.1-1.4
		c-0.8,0-1.5,0.2-2.2,0.5s-1.2,0.8-1.6,1.3s-0.6,1.2-0.6,1.9c0,1,0.4,1.7,1.1,2.2c0.7,0.5,1.8,0.9,3.3,1.2c1.4,0.3,2.7,0.5,3.9,0.7
		c1.1,0.2,2.1,0.4,2.7,0.7c1.2,0.5,2.2,1.3,2.9,2.2c0.7,1,1,2,1,3.2c0,1.2-0.3,2.2-0.9,3.2s-1.5,1.8-2.7,2.4
		c-1.1,0.6-2.4,0.9-3.8,0.9c-0.8,0-1.4-0.1-1.8-0.2c-0.4-0.1-1.1-0.3-2.1-0.6c-1-0.3-1.7-0.5-2.2-0.5c-0.9,0-1.6,0.3-2.1,0.9h-0.9
		V57.6z M157.1,48.4c-0.2,0.7-0.3,1.3-0.3,1.8c0,0.5,0.1,1,0.3,1.5c0.2,0.5,0.5,1,0.9,1.5s0.8,0.8,1.3,1.1c0.6,0.4,1.3,0.7,2.1,0.8
		s1.9,0.3,3.4,0.6c1.5,0.2,2.5,0.4,3.1,0.6c1,0.3,1.9,0.8,2.4,1.5c0.6,0.7,0.9,1.5,0.9,2.4c0,0.7-0.2,1.4-0.7,2.2
		c0.9-0.8,1.3-1.8,1.3-2.9c0-1.1-0.3-2-1-2.7c-0.7-0.6-1.5-1.1-2.4-1.4c-1-0.3-2.3-0.6-4-0.9c-1.7-0.3-2.5-0.4-2.6-0.4
		c-1.5-0.4-2.7-1-3.5-1.8s-1.2-1.9-1.2-3c0-0.2,0-0.4,0-0.5C157,48.6,157,48.5,157.1,48.4z M157.1,60.2v3.8c0.3-0.4,0.6-0.6,0.9-0.7
		s0.7-0.1,1.2-0.1c-0.4-0.4-0.6-0.6-0.8-0.8s-0.4-0.4-0.6-0.8C157.6,61.3,157.3,60.8,157.1,60.2z M169.3,48.2l-0.5-2.7
		c-0.4,0.1-0.7,0.2-1.1,0.2c-0.4,0-0.8-0.1-1.3-0.2c0.4,0.2,0.8,0.5,1.1,0.8c0.3,0.3,0.7,0.7,1,1.1C169,47.9,169.2,48.1,169.3,48.2z
		"/>
</g>
</svg>
